<svg id="visual" viewBox="0 0 960 540" width="960" height="540" xmlns="http://www.w3.org/2000/svg" xmlns:xlink="http://www.w3.org/1999/xlink" version="1.1"><rect x="0" y="0" width="960" height="540" fill="#EAEAEA"></rect><defs><linearGradient id="grad1_0" x1="43.8%" y1="0%" x2="100%" y2="100%"><stop offset="14.444444444444446%" stop-color="#eaeaea" stop-opacity="1"></stop><stop offset="85.55555555555554%" stop-color="#eaeaea" stop-opacity="1"></stop></linearGradient></defs><defs><linearGradient id="grad2_0" x1="0%" y1="0%" x2="56.3%" y2="100%"><stop offset="14.444444444444446%" stop-color="#eaeaea" stop-opacity="1"></stop><stop offset="85.55555555555554%" stop-color="#eaeaea" stop-opacity="1"></stop></linearGradient></defs><g transform="translate(960, 0)"><path d="M0 378C-48.9 371.6 -97.8 365.3 -144.3 348.3C-190.7 331.3 -234.8 303.7 -267.3 267.3C-299.8 230.9 -320.7 185.7 -337.2 139.7C-353.7 93.7 -365.9 46.8 -378 0L0 0Z" fill="#147686"></path></g><g transform="translate(0, 540)"><path d="M0 -378C47.3 -366.6 94.5 -355.2 140.1 -338.1C185.6 -321.1 229.3 -298.5 265.9 -265.9C302.4 -233.3 331.7 -190.6 349.2 -144.7C366.7 -98.7 372.4 -49.3 378 0L0 0Z" fill="#147686"></path></g></svg>