<svg id="visual" viewBox="0 0 960 540" width="960" height="540" xmlns="http://www.w3.org/2000/svg" xmlns:xlink="http://www.w3.org/1999/xlink" version="1.1"><rect width="960" height="540" fill="#fff"></rect><g><g transform="translate(68 425)"><path d="M94.9 -32.7C105.6 1.8 84.6 44.8 49.8 70.5C15 96.3 -33.8 105 -61.7 84.7C-89.6 64.5 -96.6 15.4 -82.8 -23.5C-69.1 -62.3 -34.5 -91 3.8 -92.3C42.2 -93.5 84.3 -67.3 94.9 -32.7Z" stroke="#147686" fill="none" stroke-width="20"></path></g><g transform="translate(722 400)"><path d="M101 -33.1C112 1.3 89.2 46.4 53.3 72.2C17.4 98 -31.6 104.5 -64.8 82C-98 59.6 -115.4 8.2 -102 -29.4C-88.5 -67.1 -44.3 -91 0.3 -91.1C44.9 -91.2 89.9 -67.5 101 -33.1Z" stroke="#147686" fill="none" stroke-width="20"></path></g><g transform="translate(854 40)"><path d="M91 -28.8C103 7.5 87.7 53.5 58.1 73.4C28.6 93.4 -15.1 87.2 -44.5 65C-73.9 42.8 -88.9 4.5 -79.1 -28.7C-69.2 -62 -34.6 -90.2 2.4 -91C39.5 -91.8 78.9 -65.1 91 -28.8Z" stroke="#147686" fill="none" stroke-width="20"></path></g></g></svg>